<svg xmlns="http://www.w3.org/2000/svg" viewBox="0 0 455.28 455.28">
  <path d="M316,40.69c-72.79,0-132,59.21-132,132v12h-60v-56c0-8.84-7.16-16-16-16s-16,7.16-16,16v127.48c-25.73-30.58-44-61.38-44-87.48v-4c0-50.73,41.27-92,92-92,15.84,0,31.46,4.09,45.17,11.84,7.69,4.34,17.45,1.63,21.8-6.06,4.35-7.69,1.63-17.45-6.06-21.8-18.5-10.45-39.57-15.98-60.92-15.98-68.37,0-124,55.63-124,124v4c0,37.88,24.69,81.91,75.48,134.6,38.96,40.42,85.91,78.3,126.7,110.03,2.89,2.25,6.36,3.37,9.82,3.37s6.93-1.12,9.82-3.37c40.79-31.72,87.73-69.6,126.7-110.03,50.79-52.7,75.48-96.72,75.48-134.6v-4c0-68.37-55.63-124-124-124ZM408,168.69c0,53.13-75.66,125.76-136,176.26v-112.26h44c37.5,0,68-30.5,68-68s-30.5-68-68-68c-41.91,0-76,34.09-76,76v196c0,.73.07,1.44.16,2.15-4.3,3.41-8.37,6.61-12.16,9.57-26.88-21.02-67.9-53.83-104-89.72v-73.99h60v80c0,8.84,7.16,16,16,16s16-7.16,16-16v-124c0-55.14,44.86-100,100-100,50.73,0,92,41.27,92,92v4ZM272,200.69v-28c0-24.26,19.74-44,44-44,19.85,0,36,16.15,36,36s-16.15,36-36,36h-44Z"/>
</svg>
