<?xml version="1.0" encoding="UTF-8" standalone="no"?><!DOCTYPE svg PUBLIC "-//W3C//DTD SVG 1.1//EN" "http://www.w3.org/Graphics/SVG/1.1/DTD/svg11.dtd"><svg width="100%" height="100%" viewBox="0 0 456 456" version="1.1" xmlns="http://www.w3.org/2000/svg" xmlns:xlink="http://www.w3.org/1999/xlink" xml:space="preserve" xmlns:serif="http://www.serif.com/" style="fill-rule:evenodd;clip-rule:evenodd;stroke-linejoin:round;stroke-miterlimit:2;"><rect x="0" y="0" width="455.28" height="455.28" style="fill:#fff;"/><path d="M316,40.69c-72.79,0 -132,59.21 -132,132l0,12l-60,0l0,-56c0,-8.84 -7.16,-16 -16,-16c-8.84,0 -16,7.16 -16,16l0,127.48c-25.73,-30.58 -44,-61.38 -44,-87.48l0,-4c0,-50.73 41.27,-92 92,-92c15.84,0 31.46,4.09 45.17,11.84c7.69,4.34 17.45,1.63 21.8,-6.06c4.35,-7.69 1.63,-17.45 -6.06,-21.8c-18.5,-10.45 -39.57,-15.98 -60.92,-15.98c-68.37,0 -124,55.63 -124,124l0,4c0,37.88 24.69,81.91 75.48,134.6c38.96,40.42 85.91,78.3 126.7,110.03c2.89,2.25 6.36,3.37 9.82,3.37c3.46,0 6.93,-1.12 9.82,-3.37c40.79,-31.72 87.73,-69.6 126.7,-110.03c50.79,-52.7 75.48,-96.72 75.48,-134.6l0,-4c0,-68.37 -55.63,-124 -124,-124l0.01,0Zm92,128c0,53.13 -75.66,125.76 -136,176.26l0,-112.26l44,0c37.5,0 68,-30.5 68,-68c0,-37.5 -30.5,-68 -68,-68c-41.91,0 -76,34.09 -76,76l0,196c0,0.73 0.07,1.44 0.16,2.15c-4.3,3.41 -8.37,6.61 -12.16,9.57c-26.88,-21.02 -67.9,-53.83 -104,-89.72l0,-73.99l60,0l0,80c0,8.84 7.16,16 16,16c8.84,0 16,-7.16 16,-16l0,-124c0,-55.14 44.86,-100 100,-100c50.73,0 92,41.27 92,92l0,4l0,-0.01Zm-136,32l0,-28c0,-24.26 19.74,-44 44,-44c19.85,0 36,16.15 36,36c0,19.85 -16.15,36 -36,36l-44,0Z" style="fill:#c814b4;fill-rule:nonzero;"/></svg>